<?xml version="1.0" encoding="utf-8"?>
<!-- Generator: Adobe Illustrator 16.0.0, SVG Export Plug-In . SVG Version: 6.00 Build 0)  -->
<!DOCTYPE svg PUBLIC "-//W3C//DTD SVG 1.1//EN" "http://www.w3.org/Graphics/SVG/1.1/DTD/svg11.dtd">
<svg version="1.1" id="Calque_1" xmlns="http://www.w3.org/2000/svg" xmlns:xlink="http://www.w3.org/1999/xlink" x="0px" y="0px"
	 width="412.295px" height="96.168px" viewBox="0 0 412.295 96.168" enable-background="new 0 0 412.295 96.168"
	 xml:space="preserve">
<g>
	<path fill="#89CCCA" d="M94.404,13.582c-1.036-1.503-2.588-2.471-3.184-4.427c-0.856,0.113-1.132-0.757-2.229-0.815
		c-1.49-1.666-3.909-2.47-6.206-3.609c-2.198-1.091-4.102-2.766-6.051-3.769c-3.667-1.887-8.56-0.47-12.413-0.164
		c-8.91,0.703-16.411,2.323-24.193,4.261c-3.058,0.763-6.48,1.313-8.91,2.622c-0.854,0.459-1.749,1.443-2.55,2.131
		c-0.891,0.767-1.767,1.467-2.707,2.13c-1.877,1.336-3.307,3.221-5.091,4.424c-0.554,0.379-1.226,0.481-1.75,0.821
		c-3.897,2.513-6.767,6.183-11.301,7.868c-1.165,2.006-3.02,2.981-3.978,4.917c-0.992,1.996-1.172,5.182-1.91,8.03
		c-0.701,2.701-1.567,5.703-1.75,8.358c-0.947,13.589,1.879,22.803,7.003,29.996c1.699,2.387,3.051,4.566,4.614,6.554
		c0.979,1.245,1.419,1.958,2.388,2.953c1.181,1.21,2.352,2.247,3.341,3.44c8.974,4.614,19.935,8.272,31.673,8.522
		c1.178-0.897,2.732-0.604,3.979-0.983c1.745-0.534,3.371-1.448,5.095-1.967c1.898-0.573,3.948-0.938,5.728-1.641
		c1.639-0.645,2.641-1.647,3.981-2.456c2.475-1.491,4.763-3.093,6.844-4.754c4.246-3.384,7.154-8.079,11.298-11.308
		c0.449-1.397,1.198-2.487,2.072-3.441c0.741-2.709,1.925-5.181,3.023-7.705c1.082-2.48,2.494-4.971,3.34-7.537
		c1.077-3.256,1.219-6.949,2.709-10.326c0.406-6.981,1.085-15.088-0.159-22.29C96.5,19.897,95.015,16.787,94.404,13.582z
		 M87.4,45.706c-0.357,2.646-1.902,5.514-2.865,8.357c-1.379,4.08-2.406,7.994-3.98,11.473c-1.157,2.559-1.924,4.2-3.66,6.392
		c-0.91,1.149-1.73,2.475-2.546,3.442c-1.423,1.688-3.627,3.045-5.41,4.591c-1.397,1.206-2.621,2.229-4.14,3.441
		c-5.572,4.444-14.688,7.675-23.396,7.375c-4.614-0.164-8.861-2.63-12.573-4.591c-5.062-2.67-7.616-7.563-10.03-13.275
		c-1.453-3.439-3.204-6.689-4.295-10.325c-0.648-2.149-1.155-4.492-1.751-6.72c-1.781-6.634-2.255-14.757,1.271-20.485
		c0.518-0.843,1.449-1.588,2.072-2.46c5.246-7.335,12.331-12.801,17.983-20.16c3.743-0.744,7.576-0.344,12.096-0.492
		c1.775-0.053,3.563-0.285,5.252-0.327c1.806-0.042,3.801,0.531,5.412,0.166c3.811-0.862,12.636,0.392,16.554,1.311
		c6.211,4.457,10.278,11.98,12.573,20.157C86.675,36.086,87.75,43.142,87.4,45.706z"/>
	<path fill="#A5C295" d="M79.832,30.298c-0.48-1.045-0.788-2.253-1.274-3.112c-2.636-4.683-8.71-6.454-13.212-9.18
		c-3.944-0.008-6.926-1.329-10.823-1.475c-5.414-0.204-11.41,1.56-14.641-0.327c-0.09-0.476-0.249,0.251-0.476,0.162
		c-1.007-0.326-2.38,0.098-3.184,0.495c-0.246,2.466-1.502,3.259-3.027,4.589c-4.744,4.123-8.953,8.051-11.936,13.602
		c-2.491,1.475-4.505,3.587-5.253,6.884c-1.331,5.875-0.771,11.87,0.958,16.554c0.564,1.535,1.99,3.853,3.181,5.245
		c1.361,1.588,2.937,4.132,3.821,4.589c0.74,0.38,1.292-0.071,1.908,0.163c1.547,0.585,1.354,2.02,2.547,3.114
		c1.913,1.75,5.732,2.553,8.595,3.115c3.303,0.649,6.638,1.707,10.028,1.801c2.759,2.989,8.663,1.295,12.256,0
		c4.029-1.449,7.982-3.167,11.301-5.408c1.39-0.937,2.318-2.014,3.343-3.113c1.658-1.781,2.705-3.415,4.134-5.901
		c1.674-2.902,2.658-4.938,3.347-8.193c0.696-3.3,1.236-7.424,1.113-11.312C82.393,38.007,81.159,33.189,79.832,30.298z
		 M71.554,47.017c-0.432,5.107-1.284,8.126-2.867,11.637c-1.188,2.641-1.449,3.954-3.497,5.736
		c-2.656,2.307-8.083,4.053-12.894,3.441c-1.999-0.255-4.321-1.81-6.684-2.95c-3.297-1.589-6.1-3.278-8.756-5.571
		c-3.563-3.082-7.691-6.411-9.707-10.984c-1.189-2.69-0.729-8.574,0.637-11.636c4.814-4.425,10.87-7.049,12.732-14.75
		c0.142-0.102,0.284-0.199,0.317,0c2.492,1.359,5.175,0.975,7.958,0.819c5.636-0.312,11.151,0.965,17.03,1.966
		c3.409,3.189,5.556,8.342,6.047,14.915C72.039,41.854,71.764,44.54,71.554,47.017z"/>
	<path fill="#CD1719" d="M61.227,29.152c-0.915-0.35-1.513-0.942-1.91-0.982c-1.842-0.19-3.552,1.225-4.457,2.129
		c-2.036,2.042-3.376,5.272-5.253,7.703c-0.806-0.262-1.18-0.971-1.273-1.967c-1.466-0.453-2.037-1.833-3.025-2.785
		c-3.683-1.777-8.811-1.525-11.3,1.311c-1.418,2.665-3.129,5.737-1.751,9.505c1.459,2.543,3.241,4.75,4.936,7.048
		c1.678,1.243,3.412,2.913,5.411,4.59c1.86,1.556,4.13,2.71,5.729,4.26c1.088,1.055,2.242,1.924,3.5,2.786
		c0.524,0.358,1.221,1.042,1.754,1.145c2.958,0.598,3.148-1.142,4.457-3.274c0.342-0.565,0.942-0.864,1.112-1.15
		c0.285-0.48,0.42-1.279,0.793-1.965c1.893-3.468,4.368-8.748,5.256-12.949c0.951-4.508,1.572-9.925-0.636-13.11
		C63.426,29.802,62.862,29.781,61.227,29.152z"/>
</g>
<g>
	<path fill="#89CCCA" d="M306.15,23.722c0,2.869-2.348,5.195-5.242,5.195h-15.866c-2.896,0-5.244-2.326-5.244-5.195V7.078
		c0-2.87,2.348-5.196,5.244-5.196h15.866c2.895,0,5.242,2.326,5.242,5.196V23.722z"/>
	<path fill="#A5C295" d="M341.531,23.722c0,2.869-2.346,5.195-5.242,5.195H320.42c-2.891,0-5.24-2.326-5.24-5.195V7.078
		c0-2.87,2.35-5.196,5.24-5.196h15.869c2.896,0,5.242,2.326,5.242,5.196V23.722z"/>
	<path fill="#547F7D" d="M376.916,23.722c0,2.869-2.35,5.195-5.244,5.195h-15.869c-2.896,0-5.242-2.326-5.242-5.195V7.078
		c0-2.87,2.346-5.196,5.242-5.196h15.869c2.895,0,5.244,2.326,5.244,5.196V23.722z"/>
	<path fill="#CD1719" d="M412.297,23.722c0,2.869-2.35,5.195-5.246,5.195h-15.867c-2.893,0-5.242-2.326-5.242-5.195V7.078
		c0-2.87,2.35-5.196,5.242-5.196h15.867c2.896,0,5.246,2.326,5.246,5.196V23.722z"/>
</g>
<g>
	<path fill="#CD1719" d="M130.208,24.295l7.956-21.276h3.367l-11.323,29.565L118.885,3.019h3.367L130.208,24.295z"/>
	<path fill="#CD1719" d="M163.692,30.919h-3.108v-27.9h3.108V30.919z"/>
	<path fill="#CD1719" d="M197.955,8.458c-1.11-1.924-2.442-3.034-4.811-3.034c-2.479,0-4.625,1.776-4.625,4.329
		c0,2.405,2.479,3.515,4.367,4.366l1.85,0.814c3.626,1.591,6.697,3.404,6.697,7.844c0,4.884-3.922,8.622-8.77,8.622
		c-4.478,0-7.808-2.886-8.696-7.215l3.034-0.851c0.407,2.849,2.59,5.18,5.587,5.18c2.998,0,5.735-2.294,5.735-5.439
		c0-3.256-2.553-4.366-5.143-5.55l-1.702-0.74c-3.256-1.48-6.068-3.146-6.068-7.142c0-4.33,3.663-7.104,7.808-7.104
		c3.108,0,5.735,1.591,7.215,4.329L197.955,8.458z"/>
	<path fill="#CD1719" d="M225.112,30.919h-3.108v-27.9h3.108V30.919z"/>
	<path fill="#CD1719" d="M254.12,30.919h-3.107V5.905h-6.734V3.019h16.651v2.886h-6.809V30.919z"/>
</g>
<polygon fill="#547F7D" points="156.282,45.546 156.282,76.498 156.144,76.498 132.042,45.546 118.885,45.546 118.885,96.168 
	132.042,96.168 132.042,65.149 132.179,65.149 156.282,96.168 169.436,96.168 169.436,45.546 "/>
<path fill="#547F7D" d="M205.386,61.188h0.134l5.371,16.114h-10.944L205.386,61.188z M198.337,45.546l-19.471,50.622h13.965
	l3.49-8.795h18.128l3.287,8.795h14.034l-19.067-50.622H198.337z"/>
<polygon fill="#547F7D" points="280.915,45.546 270.04,72.599 259.764,45.546 246.807,45.546 238.212,96.168 251.302,96.168 
	255.533,67.028 255.67,67.028 267.284,96.168 272.522,96.168 284.677,67.028 284.806,67.028 288.497,96.168 301.658,96.168 
	294.005,45.546 "/>
<path fill="#547F7D" d="M356.504,45.546v28.467c0,6.513-0.266,12.955-5.303,17.858c-4.23,4.161-10.873,5.638-16.781,5.638
	c-5.906,0-12.559-1.478-16.781-5.638c-5.039-4.903-5.307-11.345-5.307-17.858V45.546h13.16v26.653
	c0,6.581,0.467,13.766,8.928,13.766c8.457,0,8.928-7.185,8.928-13.766V45.546H356.504z"/>
<path fill="#547F7D" d="M383.361,68.237h1.275c4.293,0,9.131-0.804,9.131-6.307c0-5.506-4.838-6.314-9.131-6.314h-1.275V68.237z
	 M412.295,96.168h-16.381l-12.42-19.472h-0.133v19.472h-13.158V45.546h19.666c10.008,0,17.594,4.767,17.594,15.576
	c0,6.983-3.896,13.023-11.08,14.299L412.295,96.168z"/>
<rect x="118.917" y="45.546" fill="none" width="293.38" height="51.963"/>
</svg>
