<?xml version="1.0" encoding="utf-8"?>
<!-- Generator: Adobe Illustrator 16.0.0, SVG Export Plug-In . SVG Version: 6.00 Build 0)  -->
<!DOCTYPE svg PUBLIC "-//W3C//DTD SVG 1.1//EN" "http://www.w3.org/Graphics/SVG/1.1/DTD/svg11.dtd">
<svg version="1.1" id="Calque_1" xmlns="http://www.w3.org/2000/svg" xmlns:xlink="http://www.w3.org/1999/xlink" x="0px" y="0px"
	 width="409.012px" height="135.553px" viewBox="0 0 409.012 135.553" enable-background="new 0 0 409.012 135.553"
	 xml:space="preserve">
<g>
	<path fill="#646363" d="M18.772,126.564c0,5.014-4.202,8.989-9.283,8.989c-5.077,0-9.282-3.976-9.282-8.989
		c0-4.993,4.205-9.037,9.282-9.037C14.57,117.527,18.772,121.571,18.772,126.564 M2.192,126.541c0,3.929,3.258,7.211,7.297,7.211
		c4.039,0,7.301-3.282,7.301-7.211c0-3.951-3.213-7.21-7.301-7.21C5.405,119.331,2.192,122.589,2.192,126.541"/>
	<polygon fill="#646363" points="33.651,119.63 33.651,124.807 39.581,124.807 39.581,126.611 33.651,126.611 33.651,135.252 
		31.666,135.252 31.666,117.83 39.766,117.83 39.766,119.63 	"/>
	<polygon fill="#646363" points="55.137,119.63 55.137,124.807 61.067,124.807 61.067,126.611 55.137,126.611 55.137,135.252 
		53.152,135.252 53.152,117.83 61.252,117.83 61.252,119.63 	"/>
	<rect x="74.684" y="117.83" fill="#646363" width="1.985" height="17.423"/>
	<path fill="#646363" d="M104.055,121.642c-1.417-1.434-3.376-2.312-5.433-2.312c-3.967,0-7.18,3.373-7.18,7.209
		c0,3.837,3.236,7.212,7.229,7.212c2.008,0,3.967-0.925,5.384-2.311v2.402c-1.534,1.086-3.425,1.71-5.312,1.71
		c-5.032,0-9.286-3.997-9.286-8.942c0-4.993,4.182-9.083,9.286-9.083c1.982,0,3.732,0.556,5.312,1.71V121.642z"/>
	<polygon fill="#646363" points="117.608,117.83 126.845,117.83 126.845,119.63 119.593,119.63 119.593,124.807 126.633,124.807 
		126.633,126.611 119.593,126.611 119.593,133.45 126.845,133.45 126.845,135.252 117.608,135.252 	"/>
	<path fill="#646363" d="M157.887,117.83h3.353c2.667,0,4.842,0.347,6.945,2.102c2.031,1.71,2.951,4.044,2.951,6.633
		c0,2.541-0.943,4.783-2.906,6.492c-2.125,1.851-4.251,2.196-7.039,2.196h-3.304V117.83z M161.312,133.45
		c2.171,0,3.99-0.301,5.619-1.802c1.466-1.34,2.22-3.166,2.22-5.107c0-1.987-0.777-3.905-2.315-5.223
		c-1.629-1.409-3.425-1.688-5.524-1.688h-1.444v13.819H161.312z"/>
	<path fill="#646363" d="M186.035,128.205c0,1.294-0.045,2.772,0.78,3.883c0.781,1.063,2.293,1.664,3.592,1.664
		c1.273,0,2.668-0.578,3.494-1.549c0.947-1.109,0.875-2.634,0.875-3.998V117.83h1.985v10.907c0,1.894-0.144,3.396-1.561,4.83
		c-1.227,1.293-3.001,1.986-4.793,1.986c-1.678,0-3.402-0.625-4.607-1.779c-1.561-1.456-1.747-3.051-1.747-5.037V117.83h1.982
		V128.205z"/>
	<polygon fill="#646363" points="232.667,135.252 230.685,135.252 230.685,119.63 226.385,119.63 226.385,117.83 237.017,117.83 
		237.017,119.63 232.667,119.63 	"/>
	<path fill="#646363" d="M266.908,126.564c0,5.014-4.202,8.989-9.283,8.989c-5.077,0-9.282-3.976-9.282-8.989
		c0-4.993,4.205-9.037,9.282-9.037C262.706,117.527,266.908,121.571,266.908,126.564 M250.328,126.541
		c0,3.929,3.258,7.211,7.297,7.211s7.301-3.282,7.301-7.211c0-3.951-3.213-7.21-7.301-7.21
		C253.541,119.331,250.328,122.589,250.328,126.541"/>
	<path fill="#646363" d="M281.741,128.205c0,1.294-0.049,2.772,0.78,3.883c0.776,1.063,2.289,1.664,3.589,1.664
		c1.275,0,2.671-0.578,3.497-1.549c0.942-1.109,0.875-2.634,0.875-3.998V117.83h1.98v10.907c0,1.894-0.14,3.396-1.557,4.83
		c-1.228,1.293-3.001,1.986-4.796,1.986c-1.675,0-3.403-0.625-4.608-1.779c-1.557-1.456-1.746-3.051-1.746-5.037V117.83h1.985
		V128.205z"/>
	<path fill="#646363" d="M308.165,135.252h-1.982V117.83h2.573c3.38,0,6.521,0.877,6.521,4.806c0,2.68-1.724,4.576-4.464,4.807
		l5.669,7.811h-2.433l-5.389-7.648h-0.495V135.252z M308.165,125.893h0.613c2.247,0,4.513-0.415,4.513-3.119
		c0-2.864-2.148-3.143-4.535-3.143h-0.591V125.893z"/>
	<rect x="329.227" y="117.83" fill="#646363" width="1.984" height="17.423"/>
	<path fill="#646363" d="M353.092,121.225c-0.709-1.201-1.557-1.895-3.069-1.895c-1.584,0-2.955,1.11-2.955,2.704
		c0,1.501,1.583,2.194,2.788,2.727l1.183,0.51c2.314,0.993,4.273,2.126,4.273,4.897c0,3.052-2.504,5.385-5.596,5.385
		c-2.86,0-4.986-1.802-5.551-4.506l1.937-0.531c0.257,1.778,1.651,3.235,3.565,3.235c1.913,0,3.664-1.435,3.664-3.396
		c0-2.035-1.634-2.729-3.285-3.468l-1.088-0.462c-2.076-0.925-3.872-1.965-3.872-4.461c0-2.702,2.338-4.437,4.982-4.437
		c1.985,0,3.663,0.995,4.607,2.704L353.092,121.225z"/>
	<polygon fill="#646363" points="370.729,116.834 377.201,131.462 383.699,116.834 387.313,135.253 385.278,135.253 
		382.991,123.467 382.94,123.467 377.201,135.97 371.487,123.467 371.437,123.467 369.145,135.253 367.115,135.253 	"/>
	<polygon fill="#646363" points="399.779,117.83 409.015,117.83 409.015,119.63 401.763,119.63 401.763,124.807 408.803,124.807 
		408.803,126.611 401.763,126.611 401.763,133.45 409.015,133.45 409.015,135.252 399.779,135.252 	"/>
	<path fill="#89CCCA" d="M93.811,14.102c-1.026-1.49-2.565-2.448-3.156-4.389c-0.849,0.113-1.121-0.75-2.21-0.808
		c-1.478-1.652-3.877-2.448-6.153-3.578c-2.18-1.079-4.067-2.743-6.001-3.737c-3.635-1.87-8.488-0.466-12.305-0.163
		C55.15,2.125,47.711,3.73,39.996,5.652c-3.032,0.756-6.423,1.302-8.835,2.6c-0.846,0.455-1.732,1.431-2.529,2.113
		c-0.883,0.759-1.749,1.455-2.683,2.113c-1.86,1.324-3.28,3.194-5.049,4.387c-0.548,0.375-1.216,0.477-1.737,0.814
		c-3.863,2.491-6.708,6.129-11.204,7.801c-1.155,1.989-2.992,2.956-3.943,4.876c-0.983,1.977-1.164,5.137-1.894,7.96
		c-0.696,2.677-1.554,5.655-1.735,8.289C-0.553,60.078,2.25,69.214,7.331,76.346c1.683,2.368,3.026,4.528,4.574,6.498
		c0.971,1.236,1.408,1.942,2.368,2.928c1.171,1.2,2.332,2.227,3.314,3.41c8.896,4.576,19.766,8.202,31.405,8.451
		c1.168-0.891,2.708-0.601,3.943-0.974c1.73-0.53,3.344-1.435,5.053-1.95c1.881-0.568,3.915-0.931,5.68-1.628
		c1.625-0.639,2.618-1.633,3.946-2.435c2.455-1.479,4.724-3.067,6.786-4.713c4.211-3.356,7.093-8.011,11.203-11.214
		c0.446-1.385,1.186-2.464,2.055-3.411c0.733-2.687,1.906-5.137,2.997-7.64c1.073-2.458,2.473-4.928,3.312-7.474
		c1.069-3.229,1.209-6.89,2.686-10.239c0.401-6.922,1.076-14.959-0.156-22.099C95.888,20.366,94.417,17.282,93.811,14.102
		 M86.867,45.955c-0.354,2.626-1.886,5.467-2.84,8.287c-1.367,4.045-2.386,7.925-3.948,11.377c-1.147,2.537-1.907,4.164-3.63,6.338
		c-0.9,1.139-1.714,2.454-2.523,3.411c-1.409,1.674-3.597,3.021-5.365,4.553c-1.385,1.196-2.598,2.211-4.103,3.411
		c-5.526,4.409-14.565,7.612-23.199,7.314c-4.574-0.163-8.789-2.605-12.468-4.552c-5.019-2.647-7.552-7.498-9.944-13.163
		c-1.441-3.408-3.177-6.632-4.258-10.238c-0.643-2.131-1.145-4.452-1.738-6.663c-1.765-6.579-2.235-14.634,1.262-20.311
		c0.514-0.838,1.435-1.576,2.054-2.44C21.369,26.007,28.394,20.587,34,13.289c3.711-0.739,7.511-0.34,11.992-0.487
		c1.76-0.053,3.533-0.283,5.209-0.324c1.79-0.042,3.769,0.527,5.366,0.163c3.78-0.854,12.529,0.39,16.414,1.299
		c6.157,4.421,10.19,11.881,12.467,19.987C86.148,36.42,87.214,43.413,86.867,45.955"/>
	<path fill="#A5C295" d="M79.362,30.679c-0.475-1.036-0.781-2.234-1.261-3.087c-2.614-4.642-8.638-6.399-13.101-9.1
		c-3.913-0.009-6.866-1.318-10.732-1.465c-5.368-0.201-11.312,1.548-14.517-0.323c-0.089-0.471-0.246,0.248-0.47,0.161
		c-1-0.323-2.362,0.097-3.158,0.491c-0.244,2.444-1.49,3.232-3.002,4.548c-4.705,4.088-8.878,7.984-11.836,13.489
		c-2.469,1.462-4.467,3.558-5.207,6.826c-1.32,5.824-0.765,11.769,0.948,16.414c0.561,1.519,1.974,3.819,3.154,5.2
		c1.35,1.575,2.912,4.097,3.789,4.549c0.735,0.378,1.281-0.07,1.892,0.163c1.534,0.579,1.342,2.002,2.525,3.087
		c1.898,1.737,5.685,2.531,8.523,3.087c3.275,0.646,6.582,1.695,9.942,1.788c2.738,2.965,8.59,1.283,12.152,0
		c3.996-1.437,7.916-3.141,11.206-5.362c1.379-0.929,2.299-1.998,3.314-3.087c1.645-1.766,2.683-3.387,4.099-5.851
		c1.661-2.877,2.636-4.897,3.321-8.126c0.69-3.27,1.226-7.359,1.102-11.214C81.903,38.324,80.68,33.545,79.362,30.679
		 M71.154,47.254c-0.426,5.065-1.272,8.058-2.842,11.54c-1.178,2.618-1.436,3.919-3.466,5.687
		c-2.635,2.286-8.016,4.018-12.786,3.413c-1.981-0.254-4.283-1.796-6.627-2.926c-3.27-1.576-6.049-3.249-8.683-5.523
		c-3.533-3.058-7.626-6.358-9.624-10.891c-1.178-2.667-0.722-8.501,0.631-11.539c4.774-4.385,10.778-6.989,12.625-14.624
		c0.141-0.1,0.283-0.197,0.315,0c2.47,1.347,5.131,0.966,7.89,0.813c5.589-0.309,11.057,0.956,16.885,1.949
		c3.381,3.163,5.511,8.271,5.998,14.79C71.635,42.137,71.363,44.798,71.154,47.254"/>
	<path fill="#CD1719" d="M60.916,29.542c-0.907-0.346-1.501-0.935-1.893-0.974c-1.827-0.189-3.525,1.214-4.42,2.111
		c-2.017,2.024-3.347,5.228-5.209,7.637c-0.799-0.258-1.172-0.96-1.261-1.949c-1.456-0.449-2.021-1.819-3-2.761
		c-3.652-1.763-8.737-1.513-11.204,1.3c-1.407,2.639-3.103,5.686-1.738,9.423c1.45,2.521,3.216,4.71,4.895,6.989
		c1.664,1.233,3.384,2.89,5.365,4.551c1.844,1.543,4.096,2.688,5.682,4.226c1.078,1.045,2.221,1.907,3.469,2.762
		c0.52,0.356,1.209,1.032,1.74,1.134c2.932,0.594,3.12-1.133,4.419-3.244c0.34-0.563,0.934-0.859,1.103-1.143
		c0.282-0.476,0.417-1.268,0.786-1.946c1.876-3.442,4.33-8.677,5.21-12.841c0.944-4.47,1.56-9.842-0.629-12.999
		C63.095,30.186,62.537,30.165,60.916,29.542"/>
	<path fill="#89CCCA" d="M303.768,24.157c0,2.845-2.329,5.152-5.199,5.152h-15.731c-2.873,0-5.2-2.307-5.2-5.152V7.655
		c0-2.846,2.327-5.152,5.2-5.152h15.731c2.87,0,5.199,2.306,5.199,5.152V24.157z"/>
	<path fill="#A5C295" d="M338.85,24.157c0,2.845-2.329,5.152-5.2,5.152h-15.735c-2.866,0-5.196-2.307-5.196-5.152V7.655
		c0-2.846,2.33-5.152,5.196-5.152h15.735c2.871,0,5.2,2.306,5.2,5.152V24.157z"/>
	<path fill="#547F7D" d="M373.934,24.157c0,2.845-2.329,5.152-5.199,5.152H353c-2.872,0-5.2-2.307-5.2-5.152V7.655
		c0-2.846,2.328-5.152,5.2-5.152h15.734c2.87,0,5.199,2.306,5.199,5.152V24.157z"/>
	<path fill="#CD1719" d="M409.016,24.157c0,2.845-2.329,5.152-5.201,5.152h-15.733c-2.869,0-5.197-2.307-5.197-5.152V7.655
		c0-2.846,2.328-5.152,5.197-5.152h15.733c2.872,0,5.201,2.306,5.201,5.152V24.157z"/>
	<polygon fill="#CD1719" points="129.312,24.725 137.201,3.629 140.54,3.629 129.312,32.944 118.087,3.629 121.424,3.629 	"/>
	<rect x="159.433" y="3.629" fill="#CD1719" width="3.08" height="27.664"/>
	<path fill="#CD1719" d="M196.487,9.022c-1.103-1.906-2.423-3.008-4.77-3.008c-2.458,0-4.588,1.76-4.588,4.294
		c0,2.383,2.461,3.484,4.33,4.328l1.836,0.809c3.596,1.576,6.64,3.375,6.64,7.775c0,4.845-3.89,8.551-8.695,8.551
		c-4.439,0-7.743-2.862-8.623-7.154l3.01-0.844c0.403,2.824,2.568,5.136,5.539,5.136c2.973,0,5.685-2.275,5.685-5.396
		c0-3.227-2.528-4.327-5.097-5.502l-1.689-0.734c-3.229-1.467-6.016-3.117-6.016-7.081c0-4.294,3.633-7.043,7.74-7.043
		c3.083,0,5.688,1.576,7.157,4.291L196.487,9.022z"/>
	<rect x="220.333" y="3.629" fill="#CD1719" width="3.081" height="27.664"/>
	<polygon fill="#CD1719" points="252.175,31.292 249.096,31.292 249.096,6.491 242.417,6.491 242.417,3.629 258.926,3.629 
		258.926,6.491 252.175,6.491 	"/>
	<polygon fill="#547F7D" points="155.165,45.797 155.165,76.487 155.028,76.487 131.132,45.797 118.087,45.797 118.087,95.992 
		131.132,95.992 131.132,65.235 131.267,65.235 155.165,95.992 168.209,95.992 168.209,45.797 	"/>
	<path fill="#547F7D" d="M203.857,61.308h0.131l5.325,15.974h-10.851L203.857,61.308z M196.866,45.797l-19.305,50.195h13.845
		l3.461-8.724h17.976l3.256,8.724h13.917L211.11,45.797H196.866z"/>
	<polygon fill="#547F7D" points="278.746,45.797 267.962,72.621 257.772,45.797 244.926,45.797 236.405,95.992 249.383,95.992 
		253.578,67.097 253.713,67.097 265.231,95.992 270.424,95.992 282.475,67.097 282.602,67.097 286.263,95.992 299.312,95.992 
		291.724,45.797 	"/>
	<path fill="#547F7D" d="M353.696,45.797v28.224c0,6.46-0.264,12.847-5.259,17.709c-4.196,4.127-10.782,5.589-16.639,5.589
		s-12.453-1.462-16.64-5.589c-4.999-4.862-5.262-11.249-5.262-17.709V45.797h13.049v26.427c0,6.525,0.462,13.649,8.853,13.649
		c8.383,0,8.85-7.124,8.85-13.649V45.797H353.696z"/>
	<path fill="#547F7D" d="M380.325,68.296h1.265c4.256,0,9.053-0.797,9.053-6.253c0-5.46-4.797-6.263-9.053-6.263h-1.265V68.296z
		 M409.012,95.992h-16.24l-12.314-19.308h-0.133v19.308h-13.046V45.797h19.499c9.924,0,17.443,4.725,17.443,15.444
		c0,6.925-3.863,12.914-10.983,14.178L409.012,95.992z"/>
</g>
</svg>
